<svg width="121" height="120" viewBox="0 0 121 120" fill="none" xmlns="http://www.w3.org/2000/svg">
<path d="M67.8652 119.745C66.3015 119.471 64.6815 118.729 63.7627 117.908C63.139 117.253 62.7831 116.389 62.7652 115.485C62.7652 114.566 63.234 113.276 63.9765 111.99C64.4265 111.266 64.779 110.486 65.0302 109.665C65.1877 109.099 65.5177 108.18 65.7727 107.595L66.2227 106.523L66.339 99.3563C66.399 95.3925 66.5152 91.7213 66.6127 91.1513C66.8677 89.5088 67.2952 87.9075 67.8615 86.3475L68.2927 85.3125L67.6665 84.9413C67.1002 84.5888 66.6315 84.1013 64.7752 81.8925C62.4915 79.1963 59.484 77.7113 55.224 77.205C53.8365 77.07 52.4302 76.9688 51.024 76.9125C44.7727 76.62 41.199 75.3113 37.9777 72.1463C35.574 69.7838 34.3252 67.0275 33.819 62.9663C33.1365 57.4763 32.3752 54.6638 30.969 52.38C30.6224 51.816 30.2231 51.2861 29.7765 50.7975L29.2102 50.2313L27.9615 51.0338C27.279 51.4838 26.319 52.05 25.8502 52.305C24.2865 53.1638 22.8015 54.12 21.3765 55.155C17.8815 57.6938 14.0715 60.8775 11.9827 62.9663C11.0452 63.9038 10.5577 64.3125 10.3402 64.275C8.91522 64.0613 10.0065 57.8888 12.3315 53.2388C15.3015 47.2425 20.3002 41.715 26.0827 37.9838C30.8302 34.9163 38.5065 30.6975 42.0577 29.2125C48.3652 26.5763 56.529 23.7225 62.1165 22.2C63.2902 21.8663 64.0102 21.5738 64.4977 21.2438C65.5927 20.4825 66.6652 20.1113 67.8952 20.0925C68.9302 20.0738 69.0277 20.055 70.0252 19.3875C71.199 18.6263 71.5477 18.585 72.7215 18.9975L73.4827 19.2713L74.4202 18.6263L75.3577 18L76.704 18.0188C77.739 18.0375 78.2077 18 78.6577 17.805C79.224 17.55 79.2427 17.5125 79.4002 16.575C79.7527 14.5425 79.7902 13.5263 79.5765 12.2963C79.3027 10.6763 79.2652 4.3875 79.539 3.15375C79.8315 1.82625 80.0265 1.5525 81.024 1.065C82.509 0.341252 83.6227 0.127502 86.1802 0.127502C89.304 0.127502 90.8865 0.558753 92.0602 1.69125C93.114 2.7075 93.2902 5.08875 92.7427 10.6763C92.409 13.8975 92.3715 14.7975 92.469 16.905C92.5065 18.2513 92.604 19.5225 92.6452 19.6988C92.724 20.0325 92.8027 20.0513 93.9352 20.07C95.049 20.0888 95.244 20.1488 96.2977 20.6963C97.314 21.225 98.0752 21.87 98.2327 22.3388C98.2515 22.4363 98.4277 22.4363 98.739 22.3388C99.3427 22.1625 99.8715 22.3575 100.303 22.8863C100.558 23.22 100.711 23.2763 101.3 23.2763C102.103 23.2763 102.395 23.4713 103.059 24.45C103.369 24.8893 103.795 25.2344 104.289 25.4475C105.384 25.995 106.869 27.5175 107.435 28.7288C108.313 30.525 108.489 32.6138 107.941 34.4888C107.746 35.1938 107.746 35.2125 108.155 35.895C109.014 37.3613 109.329 39.1575 108.976 40.68L108.781 41.58L109.366 42.165C112.276 45.075 111.845 49.8225 108.294 54.06C107.897 54.544 107.562 55.0756 107.296 55.6425C106.614 57.4575 105.83 58.7288 104.818 59.7825L103.783 60.8363H102.729C101.675 60.8363 100.19 60.4838 99.2902 60.015C98.919 59.82 98.9002 59.82 98.979 60.0525C99.2152 60.9113 99.8002 64.4063 99.9952 66.3413C100.306 69.3113 100.209 73.6275 99.8002 75.4838C99.5015 76.8586 99.0011 78.1816 98.3152 79.41C97.9252 80.0363 97.9065 80.1713 97.9815 80.9325C98.0977 82.005 97.8465 83.805 97.4152 84.9938C96.8865 86.3813 96.6915 87.0263 96.5752 87.7275C96.4777 88.3313 96.4777 88.3313 96.909 88.3313C97.4752 88.3313 97.7865 88.665 97.7865 89.3288C97.7865 89.6213 97.5315 91.2038 97.2202 92.8238C96.3615 97.3763 96.3015 97.8825 96.3015 102.296C96.2827 106.849 96.2827 106.808 97.3177 107.49L99.6427 108.994C101.643 110.321 103.785 111.422 106.029 112.275C109.291 113.565 109.741 113.895 109.741 114.99C109.741 115.478 109.644 115.654 109.235 116.044C107.986 117.255 105.523 117.529 100.561 117C97.9835 116.758 95.3958 116.635 92.8065 116.629C85.9702 116.531 84.9727 116.295 84.0765 114.596C83.5702 113.621 83.6677 112.35 84.369 110.261C84.6802 109.343 84.954 108.405 85.1902 107.449C85.659 105.184 85.3477 102.488 84.2527 99.4425L83.3152 96.8438C82.3965 94.2075 81.8902 89.3813 82.4377 88.29C82.5352 88.0763 82.7115 88.035 83.1802 88.0538L83.7652 88.1138L84.2527 87.0975C84.624 86.295 85.0327 85.77 86.1465 84.6563L87.5715 83.2313L87.4927 82.3125C87.4327 81.435 86.2815 77.175 86.124 77.1938C86.064 77.1938 85.7527 77.625 85.4002 78.1688C84.5415 79.4588 82.6477 81.45 81.5715 82.1738C81.1027 82.485 80.7127 82.8563 80.7127 82.9763C80.694 83.505 80.244 84.54 79.6965 85.26C79.1677 85.965 79.1302 86.0813 79.209 86.7038C79.344 87.6225 79.0515 90.57 78.7027 92.115C78.3866 93.2622 77.9544 94.3742 77.4127 95.4338C76.0665 98.2275 75.0502 100.725 74.7952 101.88C74.6111 102.992 74.4934 104.114 74.4427 105.24C74.3827 106.568 74.2477 107.858 74.1502 108.131C74.0152 108.503 74.0152 108.795 74.1315 109.361C74.229 109.77 74.289 110.689 74.2665 111.413C74.2477 112.41 74.3265 113.055 74.619 114.225C75.1252 116.216 75.2227 117.469 74.9902 118.211C74.8327 118.68 74.679 118.856 74.1502 119.111C72.9765 119.715 69.6577 120.049 67.8615 119.738L67.8652 119.745ZM72.609 118.144C73.2915 117.949 73.8802 117.364 73.8802 116.835C73.8802 116.599 73.6852 115.916 73.449 115.313C72.9802 114.161 72.1777 111.113 72.1777 110.606C72.1777 110.351 72.1965 110.333 72.5865 110.546L73.0177 110.783V110.235C72.9551 109.73 72.8434 109.233 72.684 108.75C72.3127 107.636 72.2752 107.618 69.909 107.479L68.3077 107.4L67.7227 107.966C67.4011 108.297 67.1191 108.665 66.8827 109.061C66.6277 109.568 66.5302 110.333 66.6877 110.505C66.7252 110.565 67.119 110.505 67.5465 110.408C67.8003 110.332 68.0621 110.287 68.3265 110.273C68.3265 110.291 67.8952 110.644 67.3515 111.015C65.0077 112.774 64.1865 113.846 64.1865 115.215C64.1865 116.64 65.5327 117.754 67.644 118.088C69.0877 118.301 71.9002 118.361 72.6052 118.148L72.609 118.144ZM104.386 115.819C104.971 115.114 104.893 114.394 104.15 113.573C103.719 113.141 103.231 112.77 102.684 112.478C102.136 112.185 101.589 111.851 101.041 111.503C100.051 110.861 99.0341 110.261 97.9927 109.706C97.0927 109.219 96.2152 108.709 95.3565 108.165L95.004 107.891V102.521C95.004 97.23 94.9852 97.1513 94.7115 97.23C93.3427 97.6013 91.0777 97.7775 88.209 97.7175L85.104 97.68L85.554 98.775C86.394 100.845 86.8252 103.62 86.8252 106.804C86.8252 107.996 86.7465 108.424 86.454 109.264C86.2965 109.673 86.1615 110.085 86.0227 110.494C85.9627 110.67 86.1802 110.805 86.979 111.041C87.564 111.218 88.4227 111.394 88.914 111.45L89.814 111.548L89.7165 112.448C89.619 113.464 89.7352 114.536 89.9902 114.87C90.1477 115.065 90.7327 115.144 93.4477 115.26C95.499 115.358 97.7265 115.571 99.4815 115.826C101.004 116.063 102.646 116.258 103.134 116.258C103.955 116.276 104.034 116.239 104.383 115.826L104.386 115.819ZM73.119 106.68C73.1977 106.62 73.314 105.566 73.3552 104.318C73.5127 100.823 73.6477 100.313 75.4065 96.3675C76.8502 93.1463 77.6152 90.1388 77.5552 88.0088L77.5177 86.7375L76.9702 87.2663C75.8377 88.3988 76.6177 86.6213 77.9677 85.0388C78.984 83.8275 79.3365 83.1638 79.4902 82.0913C79.569 81.66 79.7265 81.4463 80.3902 80.94C82.8737 79.0639 84.7873 76.5349 85.9177 73.635C86.1915 72.93 86.8927 70.53 87.4815 68.3025C88.5765 64.1813 89.1615 62.4038 89.6902 61.6425C89.8852 61.35 89.964 61.29 89.9265 61.485C89.6433 62.5324 89.4216 63.5955 89.2627 64.6688C89.1052 65.625 88.8127 67.5 88.6177 68.8088C88.2465 71.4863 87.8565 73.2038 87.3277 74.5313L86.9752 75.4313L87.9127 77.8538C88.8877 80.3325 89.3377 82.1325 89.4165 83.8688L89.4765 84.8438L88.7152 85.0013C87.7105 85.1791 86.8139 85.7396 86.214 86.565C85.5502 87.5213 85.179 88.305 85.3552 88.4775C85.434 88.5563 86.3902 88.7325 87.4852 88.8675C89.184 89.0625 89.829 89.0625 92.0752 88.9275C93.0502 88.89 94.0102 88.7925 94.9665 88.6538C95.1802 88.575 95.3977 88.1475 95.7465 87.0338C96.549 84.4763 96.7027 83.5763 96.6052 81.78L96.5265 80.1975L96.9352 79.6688C97.8915 78.4575 98.634 76.2713 98.9452 73.71C99.3165 70.5863 98.634 64.0425 97.3627 58.4175C96.759 55.74 96.504 54.1388 96.504 52.9688V51.9338L95.5477 52.0313C92.109 52.4025 87.9502 52.305 85.4115 51.7763C84.024 51.5025 80.529 50.4675 79.7677 50.1338L79.164 49.86L79.0852 50.5425C79.0252 50.9138 78.969 51.285 78.8902 51.675C78.774 52.0838 78.8115 52.1813 79.5352 52.8863C80.4352 53.805 80.709 54.2738 80.709 54.8963C80.709 55.2863 80.4952 55.6013 79.4002 56.7338C78.6151 57.5715 77.7441 58.3244 76.8015 58.98L75.5302 59.8388L74.9827 61.7325C73.029 68.6663 72.6577 74.9738 73.9477 79.485L74.259 80.6175L73.6327 81.3975C71.289 84.345 69.9015 86.5913 69.6877 87.8438C69.5628 88.4605 69.4189 89.0733 69.2565 89.6813C68.7502 91.6163 68.3565 94.4475 68.184 97.515C68.0638 100.083 67.895 102.648 67.6777 105.21L67.5802 105.971L68.5552 106.264C69.1027 106.44 69.924 106.635 70.3927 106.714C71.2702 106.849 72.894 106.811 73.1452 106.676L73.119 106.68ZM92.0827 95.9363C93.6052 95.8388 94.9927 95.6025 95.2665 95.37C95.3827 95.2913 95.5215 94.8825 95.559 94.47L95.6565 93.7275L94.4452 94.0013C93.489 94.1963 92.5327 94.3125 91.5727 94.3913C89.2665 94.4888 86.9452 94.4288 84.6577 94.1963C83.8965 94.08 83.8965 94.08 84.129 95.0738C84.324 95.8163 84.3652 95.8538 86.3565 95.9925C87.684 96.1088 89.5402 96.09 92.079 95.9325L92.0827 95.9363ZM90.8115 92.5388C92.8027 92.3625 95.2852 91.935 95.7727 91.68C95.9302 91.6013 96.0652 91.3088 96.1252 90.975L96.3015 89.94L96.399 89.4525L95.9115 89.55C93.744 90 92.1015 90.135 88.8202 90.135C85.6177 90.135 85.2465 90.1163 84.4065 89.8238C84.0837 89.6877 83.74 89.6078 83.3902 89.5875C83.2552 89.6663 83.2327 90.78 83.3527 91.56C83.4315 92.0288 83.5102 92.1075 83.979 92.2425C85.464 92.6513 87.9652 92.7488 90.8152 92.5163L90.8115 92.5388ZM54.564 74.9213C59.5627 73.4775 66.1065 69.2363 71.4577 63.9263C73.1977 62.1863 73.4115 61.9538 73.644 61.1738L73.9552 60.1763C73.9927 60.0975 73.6815 59.9625 73.2727 59.865C72.2002 59.61 71.379 58.9875 71.379 58.4213C71.379 58.0875 71.184 57.7575 70.6177 57.15C69.699 56.115 69.4665 55.665 69.369 54.6713L69.2902 53.8688L68.1952 53.0888C67.569 52.6388 65.3827 51.4275 63.0577 50.2575C61.2875 49.3939 59.5547 48.4555 57.864 47.445C55.9102 46.1363 54.6015 44.5725 53.859 42.72C53.724 42.3488 53.5477 42.0375 53.4877 42.0375C53.3302 42.0375 48.9352 46.275 47.0602 48.2663C42.4327 53.1488 39.249 57.3863 37.2352 61.3125C36.729 62.2875 36.1815 63.4425 36.024 63.87L35.7315 64.65L36.084 65.9588C36.2977 66.6638 36.7477 67.815 37.1002 68.4975C38.3302 70.92 39.7965 72.3825 42.219 73.575C44.8177 74.865 47.1202 75.315 50.9677 75.255C53.0377 75.2363 53.6452 75.1763 54.5602 74.9025L54.564 74.9213ZM15.1102 57.7913C18.3915 54.8813 22.9215 51.6975 28.4715 48.3975C32.1052 46.23 46.149 39.1988 52.614 36.3263C53.7877 35.7975 54.8415 35.31 54.9577 35.2538C55.074 35.175 55.4077 34.335 55.719 33.3975C57.0877 29.0625 57.7702 28.2038 60.249 27.6375C60.5602 27.5588 60.639 27.4613 60.639 27.15C60.639 26.5838 61.029 25.275 61.3627 24.69C61.6177 24.24 61.6177 24.2213 61.4002 24.2813C61.2652 24.3188 60.444 24.555 59.5852 24.81C47.6715 28.2488 37.2615 32.8163 28.2765 38.52C18.6877 44.6138 13.1602 51.9188 11.559 60.6675L11.4427 61.3125L12.6165 60.1613C13.2427 59.5163 14.3752 58.4625 15.1177 57.8175L15.1102 57.7913ZM103.49 59.4525C104.446 58.965 105.931 56.7188 106.479 54.9413C106.636 54.315 106.948 53.73 107.398 53.2425C108.841 51.6413 110.034 48.7313 110.053 46.74C110.053 43.635 108.294 42.4425 105.736 43.77C105.403 43.9275 105.133 44.0438 105.091 44.0063C104.956 43.8713 105.676 43.1663 106.558 42.6188C107.709 41.8575 107.926 41.4075 107.926 39.7875C107.943 38.4781 107.554 37.1955 106.813 36.1163C106.46 35.5875 106.325 35.2388 106.381 35.0213L106.734 33.7125C107.221 31.9725 107.045 29.9813 106.284 28.7138C105.151 26.8013 103.764 25.8638 101.829 25.7063L100.696 25.6275L101.36 26.37C103.333 28.5 104.289 31.1738 103.899 33.4613C103.704 34.635 103.528 34.8675 102.395 35.3175L101.731 35.5913L101.81 36.4913C101.945 37.9575 101.694 39.03 100.756 41.0025C100.288 42 99.9352 42.8963 99.9765 42.9938C100.093 43.3275 101.383 43.95 102.399 44.205L103.396 44.4413L102.77 44.655C101.949 44.91 101.773 45.2813 101.773 46.6275C101.773 47.8575 101.949 48.3675 102.845 49.7138C103.254 50.2988 103.528 50.9063 103.569 51.255C103.648 51.8025 103.629 51.84 103.179 51.9975C102.669 52.1407 102.144 52.2262 101.615 52.2525C99.7777 52.3688 99.6427 52.4288 98.8215 53.2088C98.079 53.9138 98.0602 53.9513 98.0602 54.7313C98.0602 55.8038 98.469 57.975 98.724 58.2675C99.0577 58.62 100.91 59.5388 101.634 59.6738C102.258 59.8305 102.918 59.7545 103.49 59.46V59.4525ZM76.4377 57.99C77.6302 57.0525 78.5677 56.115 79.0927 55.3125C79.4265 54.825 79.4452 54.7275 79.2877 54.315C79.014 53.6888 77.2177 52.0688 76.2202 51.5813C75.5556 51.2835 74.8525 51.0802 74.1315 50.9775L72.9015 50.82L72.1402 49.8638C70.5577 47.91 69.6802 46.3875 68.4277 43.4363C67.3327 40.935 66.3765 39.4725 64.854 38.025C64.2277 37.44 63.7815 36.9525 63.819 36.9525C63.8977 36.9525 64.6402 37.3238 65.499 37.7738C66.924 38.535 67.1002 38.595 67.7452 38.4975C70.0702 38.2238 72.1215 35.55 72.864 31.8C73.0777 30.7463 73.509 29.67 73.959 29.025C73.9777 29.0063 74.8777 29.5913 75.9315 30.3525C78.609 32.2463 79.194 32.5388 80.7165 32.5988C81.714 32.6363 82.2802 32.5613 84.0765 32.13C87.9052 31.1925 92.0452 30.8213 94.5652 31.155C95.9902 31.35 98.0415 31.9763 99.564 32.6963C101.068 33.4013 101.36 33.4388 101.848 33.0075C102.256 32.655 102.256 32.5988 102.256 31.29C102.238 29.355 101.533 27.2663 100.46 26.0175C99.9127 25.3725 98.3715 24.3188 96.8452 23.5163C96.3027 23.2285 95.7627 22.936 95.2252 22.6388C94.5015 22.2075 93.684 22.2675 91.4565 22.8525C88.8765 23.5163 88.194 23.5163 85.2465 22.755C82.7452 22.1288 82.5915 22.11 80.1277 22.5C78.819 22.695 75.5377 22.5788 74.4427 22.2863C73.8952 22.1288 73.3477 21.975 72.8227 21.78C71.8665 21.4088 70.2052 21.3488 68.7015 21.6225C65.7127 22.1513 63.4477 23.7713 62.6265 25.9763C62.1952 27.09 62.2552 27.6188 62.8215 27.9675C63.7215 28.5338 64.9102 30.0788 64.9102 30.6825C64.9102 30.72 64.6177 30.4688 64.284 30.1163C63.444 29.2388 62.6827 28.845 61.7827 28.845C61.2004 28.8612 60.6342 29.0397 60.1479 29.3603C59.6616 29.681 59.2745 30.1311 59.0302 30.66C58.7674 31.35 58.5458 32.055 58.3665 32.7713C57.819 34.7625 57.3315 35.82 56.2965 37.2263C55.3777 38.4975 55.2427 39.0638 55.5727 40.4888C56.394 44.0813 57.819 45.5288 63.774 48.9075C66.8977 50.685 68.499 51.6825 69.6727 52.56C70.5727 53.2238 70.5915 53.265 70.5127 53.7713C70.3365 54.945 71.079 56.2125 72.5452 57.2475C72.9165 57.5025 73.149 57.7763 73.149 57.9713C73.149 58.3238 74.1465 58.8113 74.8665 58.8113C75.2752 58.8113 75.5902 58.635 76.4302 57.99H76.4377ZM100.52 51.405C102.785 51.4838 102.901 51.3075 101.694 49.9013C100.423 48.435 100.074 47.2463 100.543 45.9375L100.738 45.4313L99.9352 45.0413C99.6615 44.9063 99.3877 44.7675 99.114 44.67C98.979 45.1988 98.8402 45.705 98.724 46.2338C98.4315 47.4263 98.079 50.5125 98.0602 51.8213C98.0602 51.9375 98.2552 51.9 98.589 51.6863C99.0577 51.4125 99.294 51.375 100.524 51.4125L100.52 51.405ZM92.9227 51.2888C94.2915 51.21 95.6977 51.1125 96.069 51.0525L96.7515 50.955L96.8302 48.7088C96.9465 45.5063 97.4152 43.6125 98.8027 40.5825C99.7777 38.4338 100.209 36.5588 99.9952 35.1525C99.9165 34.5488 99.879 34.5075 99.0577 34.155C97.5539 33.5579 95.9879 33.1315 94.389 32.8838C92.8477 32.67 88.314 32.7863 86.6152 33.12C85.9102 33.2363 84.624 33.51 83.7652 33.7238C81.6352 34.2113 80.5027 34.155 78.8827 33.45C77.2815 32.745 76.2652 32.1038 75.309 31.2038C74.5477 30.4988 74.469 30.4613 74.274 30.6975C74.1165 30.8738 74.0377 31.4025 73.9815 32.535C73.9215 34.275 73.6477 35.19 72.8865 36.42C72.7173 36.6731 72.5729 36.9418 72.4552 37.2225C72.4552 37.2825 73.0402 37.965 73.764 38.7075C76.2652 41.3063 77.4952 41.97 79.4677 41.8313C80.1127 41.7713 80.5627 41.7938 80.5627 41.8688C80.5627 42.0263 79.2915 43.02 78.7665 43.2938C78.5115 43.4288 78.4552 43.5675 78.4927 43.86L78.804 45.9113C78.9802 47.085 79.1152 47.6288 79.2915 47.7863C79.7602 48.1763 82.1827 49.4288 83.7052 50.0513C85.6965 50.8538 86.7915 51.1463 88.314 51.2813C90.189 51.4388 90.2265 51.4388 92.9227 51.2813V51.2888ZM76.7715 49.14C76.809 49.08 76.674 47.9475 76.419 46.6388C76.1077 44.8613 75.9315 44.2163 75.7365 44.04C75.6015 43.9238 74.8777 43.4138 74.154 42.8888C73.203 42.205 72.302 41.4543 71.4577 40.6425L70.1115 39.315L69.3877 39.6863L68.6265 40.095C68.6905 40.4001 68.7952 40.6952 68.9377 40.9725C69.1515 41.4413 69.5827 42.5925 69.894 43.53C70.7152 45.9713 71.3602 47.145 72.9802 49.2713L73.584 50.0738L74.7352 50.25C75.3802 50.3475 76.0252 50.4863 76.2015 50.5425C76.4752 50.6588 76.5127 50.6025 76.5915 49.9763C76.629 49.7025 76.689 49.41 76.7677 49.1363L76.7715 49.14ZM101.518 24.8438C102.515 24.7463 102.691 24.6075 102.26 24.1613C101.986 23.8875 101.36 23.8688 100.854 24.1013C100.52 24.2588 100.445 24.2175 99.9165 23.6513C99.369 23.0475 99.3315 23.025 98.6452 23.1038C98.019 23.1825 97.9215 23.1638 97.8427 22.9088C97.5988 22.4899 97.2957 22.1084 96.9427 21.7763C96.4992 21.2722 95.9446 20.8781 95.3227 20.625C94.1115 20.1563 93.429 20.2163 92.274 20.8613C88.9327 22.6763 89.0715 22.6575 85.8465 21.8363C82.839 21.075 80.5927 20.295 79.869 19.8038C79.2652 19.395 77.9752 18.945 76.899 18.8063C76.0965 18.69 75.5902 18.8663 74.829 19.4888L74.4202 19.8225L74.7915 20.4675C75.2977 21.3675 75.2415 21.4238 74.4802 20.76C73.659 20.0775 72.684 19.6088 72.0577 19.5863C71.6077 19.5863 70.2802 20.1713 70.1227 20.4263C70.0627 20.505 70.4752 20.6025 71.0227 20.64C71.589 20.7 72.369 20.895 72.8977 21.1088C74.2665 21.6938 74.9677 21.8888 76.2165 22.0088C77.5852 22.1438 80.064 21.99 80.3565 21.7538C80.514 21.6188 80.9415 21.5963 81.8415 21.675C83.034 21.7538 83.5215 21.87 86.3527 22.6313C87.9952 23.0813 89.1465 23.04 91.1002 22.515C92.0002 22.26 93.1327 22.0088 93.6015 21.9488C94.404 21.87 94.5577 21.9113 95.8102 22.4775C97.8015 23.3775 98.859 23.9438 99.444 24.4688C100.029 24.975 100.108 24.975 101.514 24.8588L101.518 24.8438ZM90.384 21.4275L91.5765 20.8013L91.539 19.59C91.5202 18.75 91.479 17.9288 91.4415 17.1113L91.344 15.8625L90.1515 16.7813C89.4465 17.3288 88.764 17.7375 88.4715 17.7975C87.6127 17.955 83.3752 17.7975 82.9815 17.5838C82.4569 17.1963 81.9664 16.7647 81.5152 16.2938L80.4202 15.18L80.4015 15.8438C80.4015 16.1963 80.364 16.8 80.2852 17.1713C80.1877 17.8763 80.1877 17.895 80.949 18.8513C81.3577 19.38 81.6915 19.8488 81.6915 19.905C81.6915 20.2763 87.3352 22.035 88.6065 22.0538C89.0152 22.0538 89.5252 21.8775 90.384 21.4275ZM88.119 16.9913C89.5252 16.7175 90.2077 15.7013 90.7365 13.125C91.284 10.35 91.5577 5.99625 91.3027 4.14C91.0665 2.46 89.1915 1.7175 85.6177 1.83375C83.3902 1.9125 82.4715 2.12625 81.7102 2.77125C81.2415 3.16125 81.2415 3.2025 81.0277 5.055C80.6377 8.61 81.2227 13.6688 82.239 15.5625C82.7265 16.4813 83.1577 16.8113 84.054 16.9688C85.0702 17.145 87.2377 17.145 88.1152 16.9875L88.119 16.9913Z" fill="black"/>
</svg>
