<svg width="114" height="101" viewBox="0 0 114 101" fill="none" xmlns="http://www.w3.org/2000/svg">
<g clip-path="url(#clip0_294_1567)">
<path d="M93.4057 32.7027C92.2032 32.2887 90.9905 31.9051 89.7688 31.5523C89.974 30.7106 90.163 29.8792 90.3307 29.0623C93.0839 15.6483 91.284 4.84178 85.1362 1.28375C79.2417 -2.12722 69.6017 1.42949 59.866 9.93342C58.9065 10.773 57.9683 11.6368 57.0523 12.524C56.4391 11.934 55.815 11.3556 55.1804 10.7888C44.9768 1.69616 34.7494 -2.13608 28.6082 1.43215C22.719 4.85374 20.9752 15.0127 23.4539 27.7254C23.7005 28.9844 23.979 30.237 24.289 31.4819C22.8413 31.8947 21.4443 32.3342 20.1074 32.8019C8.14455 36.9881 0.504883 43.5483 0.504883 50.3529C0.504883 57.3808 8.70641 64.43 21.1663 68.7043C22.1764 69.0495 23.195 69.3692 24.221 69.6634C23.8878 71.0042 23.5919 72.354 23.3338 73.7114C20.9708 86.2035 22.8161 96.1223 28.6894 99.5222C34.7556 103.033 44.9371 99.4247 54.8507 90.7268C55.6546 90.0196 56.4408 89.2925 57.2085 88.546C58.2005 89.5066 59.219 90.4393 60.2628 91.343C69.8661 99.6365 79.3503 102.985 85.2178 99.5762C91.2783 96.055 93.2481 85.3995 90.6908 72.4356C90.4894 71.42 90.2635 70.4094 90.0133 69.4047C90.7283 69.1921 91.4301 68.9732 92.1143 68.7455C105.068 64.4384 113.496 57.4747 113.496 50.3529C113.496 43.5234 105.609 36.919 93.4057 32.7027ZM90.5964 64.1474C89.9785 64.3525 89.3447 64.5505 88.6985 64.7432C87.2684 60.1995 85.3388 55.3684 82.977 50.3764C85.2306 45.5036 87.0862 40.734 88.476 36.22C89.632 36.5558 90.7535 36.9097 91.8349 37.2832C102.291 40.8961 108.669 46.2372 108.669 50.3529C108.669 54.7367 101.781 60.4277 90.5964 64.1474ZM85.9558 73.3765C87.0866 79.1087 87.2477 84.2916 86.4987 88.3435C85.8261 91.9844 84.4728 94.4115 82.7991 95.3839C79.2386 97.4526 71.6237 94.7637 63.4111 87.6706C62.4402 86.8305 61.4928 85.9634 60.57 85.0703C63.754 81.5756 66.9359 77.5131 70.0414 73.0008C75.5037 72.5144 80.6642 71.7188 85.3441 70.6331C85.5695 71.5426 85.7735 72.4573 85.9558 73.3765ZM39.0259 95.0264C35.547 96.2592 32.7761 96.2946 31.1011 95.3254C27.537 93.2624 26.0553 85.298 28.0764 74.6151C28.3166 73.3527 28.5917 72.0972 28.9013 70.8502C33.5295 71.8779 38.6525 72.6168 44.1277 73.0624C47.2543 77.4776 50.528 81.5358 53.8272 85.0894C53.1261 85.7703 52.4083 86.4338 51.6746 87.0793C47.2905 90.9252 42.8976 93.654 39.0259 95.0264ZM22.7278 64.1204C17.2182 62.2302 12.6681 59.7738 9.54943 57.0933C6.74673 54.6848 5.33214 52.2932 5.33214 50.3529C5.33214 46.2234 11.4659 40.9564 21.6964 37.3766C22.9379 36.9425 24.2373 36.5327 25.5857 36.1482C26.9999 40.7641 28.8545 45.5904 31.0927 50.4707C28.8254 55.4233 26.9443 60.3267 25.5164 64.997C24.5799 64.7278 23.6501 64.4355 22.7278 64.1204ZM28.1911 26.7947C26.0677 15.9031 27.4779 7.68706 31.0269 5.62497C34.8068 3.42867 43.1655 6.56011 51.9756 14.4115C52.5501 14.9247 53.1153 15.4482 53.671 15.9819C50.388 19.52 47.1444 23.548 44.0456 27.9371C38.7315 28.4315 33.6447 29.2253 28.9679 30.2889C28.6798 29.131 28.4208 27.9661 28.1911 26.7951V26.7947ZM76.9303 38.8739C75.8256 36.9589 74.68 35.0679 73.4942 33.2024C77.0993 33.66 80.5535 34.2673 83.7971 35.0098C82.8234 38.1425 81.6096 41.4175 80.1809 44.7753C79.1366 42.7867 78.0528 40.8191 76.9303 38.8739ZM57.0545 19.4443C59.2808 21.8652 61.5106 24.5678 63.7037 27.5003C59.2547 27.2894 54.7983 27.2886 50.3492 27.4977C52.5446 24.5922 54.7934 21.8931 57.0545 19.4443ZM37.0512 38.9071C35.9426 40.8367 34.8791 42.792 33.8614 44.7713C32.4561 41.4255 31.2533 38.1355 30.2713 34.9584C33.4951 34.2346 36.9329 33.6427 40.515 33.1935C39.316 35.0704 38.1611 36.9754 37.0512 38.9067V38.9071ZM40.6179 67.8569C36.917 67.4423 33.4275 66.881 30.2046 66.1767C31.2021 62.9429 32.4314 59.5829 33.8671 56.1653C34.8888 58.1461 35.9568 60.1026 37.0702 62.033C38.2151 64.0176 39.4006 65.9614 40.6179 67.8569ZM57.1878 81.6027C54.8997 79.1255 52.6178 76.3848 50.3894 73.4372C52.553 73.5222 54.7585 73.5656 57.0002 73.5656C59.3033 73.5656 61.5799 73.5138 63.8207 73.4137C61.6205 76.4145 59.399 79.1592 57.1878 81.6027ZM80.2264 55.9907C81.7368 59.446 83.0097 62.7883 84.0204 65.9667C80.7446 66.7171 77.2074 67.3214 73.4805 67.7701C74.6748 65.8699 75.8312 63.9461 76.9492 61.9998C78.0859 60.0214 79.1786 58.0179 80.2264 55.9907ZM72.7681 59.5794C71.0566 62.5634 69.2488 65.4909 67.3477 68.357C63.9039 68.6018 60.4526 68.7234 57.0002 68.7216C53.4838 68.7216 50.0636 68.6118 46.7701 68.3974C44.8194 65.5378 42.9771 62.6053 41.2473 59.6059H41.2477C39.526 56.6225 37.9178 53.5745 36.4266 50.4685C37.914 47.3618 39.5173 44.3124 41.2332 41.3267L41.2327 41.3271C42.9479 38.3407 44.7754 35.4206 46.7114 32.5734C50.0716 32.3182 53.5174 32.1853 56.9998 32.1853H57.0002C60.4985 32.1853 63.9487 32.3195 67.308 32.5765C69.2244 35.4195 71.0403 38.3295 72.7522 41.301C74.4738 44.2801 76.0983 47.3147 77.6232 50.3999C76.1139 53.5166 74.4946 56.5783 72.7681 59.5794ZM82.7254 5.48056C86.5089 7.67067 87.9804 16.5024 85.6032 28.0842C85.4513 28.8231 85.281 29.5757 85.0956 30.339C80.4074 29.2528 75.317 28.4452 69.9875 27.9433C66.8829 23.506 63.6658 19.4717 60.4363 15.9792C61.2827 15.1604 62.1492 14.3628 63.0351 13.5871C71.3769 6.30141 79.1733 3.42468 82.7254 5.48056ZM57.0002 40.2263C62.5725 40.2263 67.0899 44.7603 67.0899 50.3529C67.0899 55.9456 62.5725 60.4795 57.0002 60.4795C51.4279 60.4795 46.9105 55.9456 46.9105 50.3529C46.9105 44.7603 51.4279 40.2263 57.0002 40.2263Z" fill="#00D8FF"/>
</g>
<defs>
<clipPath id="clip0_294_1567">
<rect width="113" height="101" fill="white" transform="translate(0.5)"/>
</clipPath>
</defs>
</svg>
