<svg width="113" height="112" viewBox="0 0 113 112" fill="none" xmlns="http://www.w3.org/2000/svg">
<path d="M102.035 17.605L81.8539 7.88899C80.7142 7.33948 79.4318 7.15814 78.1844 7.37011C76.9371 7.58208 75.7865 8.17686 74.8923 9.07199L8.82986 69.3C8.02832 70.0273 7.54853 71.0432 7.49602 72.1243C7.44351 73.2053 7.82259 74.2629 8.54986 75.0645C8.63736 75.159 8.72486 75.25 8.81936 75.334L14.2129 80.234C14.9176 80.8754 15.8248 81.2497 16.7768 81.2919C17.7289 81.3341 18.6656 81.0416 19.4244 80.465L98.9969 20.125C99.5979 19.6689 100.314 19.3897 101.065 19.3186C101.817 19.2476 102.573 19.3877 103.248 19.7231C103.924 20.0585 104.493 20.5758 104.891 21.217C105.289 21.8581 105.5 22.5975 105.5 23.352V23.1175C105.5 21.9656 105.175 20.8372 104.562 19.862C103.949 18.8868 103.073 18.1045 102.035 17.605Z" fill="#403930"/>
<path d="M102.035 94.395L81.8539 104.115C80.7138 104.662 79.4318 104.843 78.1848 104.631C76.9378 104.419 75.7874 103.825 74.8923 102.932L8.82986 42.7C8.02832 41.9727 7.54853 40.9568 7.49602 39.8758C7.44351 38.7947 7.82259 37.7371 8.54986 36.9355C8.63736 36.841 8.72486 36.75 8.81936 36.666L14.2129 31.766C14.9183 31.1219 15.8276 30.7459 16.782 30.7037C17.7363 30.6615 18.6753 30.9557 19.4349 31.535L98.9969 91.875C99.5979 92.3311 100.314 92.6104 101.065 92.6814C101.817 92.7524 102.573 92.6123 103.248 92.2769C103.924 91.9415 104.493 91.4242 104.891 90.783C105.289 90.1419 105.5 89.4025 105.5 88.648V88.9C105.496 90.0488 105.169 91.1733 104.556 92.1451C103.944 93.1168 103.07 93.8965 102.035 94.395Z" fill="#1572B6"/>
<path d="M81.8539 104.115C80.7139 104.662 79.4319 104.843 78.1849 104.631C76.9379 104.419 75.7874 103.825 74.8924 102.932C75.395 103.428 76.0329 103.764 76.726 103.899C77.4192 104.034 78.1368 103.962 78.7889 103.691C79.441 103.42 79.9987 102.963 80.392 102.376C80.7853 101.79 80.9968 101.1 80.9999 100.394V11.606C81.0005 10.8965 80.7905 10.2028 80.3965 9.61277C80.0025 9.02274 79.4423 8.56291 78.7867 8.29155C78.1312 8.02019 77.4098 7.9495 76.7141 8.08843C76.0183 8.22737 75.3795 8.56968 74.8784 9.072C75.7728 8.1772 76.923 7.58239 78.1702 7.36983C79.4173 7.15727 80.6997 7.33747 81.8399 7.8855L102.017 17.5875C103.059 18.0845 103.938 18.8658 104.554 19.8412C105.17 20.8165 105.498 21.9463 105.5 23.1V88.9C105.5 90.0528 105.175 91.1823 104.561 92.1582C103.947 93.1341 103.071 93.9168 102.031 94.416L81.8539 104.115Z" fill="#1F9CF0"/>
</svg>
