<svg width="118" height="88" viewBox="0 0 118 88" fill="none" xmlns="http://www.w3.org/2000/svg">
<g clip-path="url(#clip0_294_1576)">
<path d="M101.173 50.5766C97.1033 50.5975 93.5656 51.5694 90.6037 53.0063C89.5165 50.8721 88.4297 48.9708 88.2382 47.576C88.0248 45.9493 87.7693 44.9561 88.0248 43.0122C88.2807 41.0683 89.4315 38.3001 89.41 38.089C89.389 37.8778 89.1541 36.8846 86.8101 36.8637C84.4661 36.8424 82.4415 37.3073 82.2071 37.92C81.9726 38.5326 81.5252 39.9273 81.2268 41.3637C80.8219 43.4771 76.5388 51.0198 74.0883 54.971C73.2995 53.4291 72.6177 52.0765 72.4682 50.999C72.2553 49.3722 71.9993 48.379 72.2553 46.4351C72.5112 44.4912 73.6619 41.7235 73.6405 41.5119C73.619 41.3007 73.3845 40.3075 71.0405 40.2866C68.6961 40.2653 66.6715 40.7302 66.4376 41.3429C66.2031 41.9559 65.9472 43.3923 65.4573 44.7871C64.9669 46.1818 59.2771 58.775 57.7855 62.0285C57.1827 63.3453 56.5503 64.6487 55.8889 65.9376C55.8889 65.9376 55.8674 66.001 55.8034 66.1066C55.5956 66.5107 55.3827 66.9122 55.1645 67.311V67.3318C54.8446 67.9028 54.5037 68.4307 54.3332 68.4307C54.2053 68.4307 53.9708 66.9095 54.3757 64.8387C55.2281 60.4652 57.2526 53.6615 57.2316 53.4291C57.2316 53.3022 57.615 52.1191 55.9104 51.506C54.2478 50.8934 53.6514 51.9075 53.5019 51.9075C53.3529 51.9075 53.246 52.2668 53.246 52.2668C53.246 52.2668 55.1005 44.618 49.7088 44.618C46.342 44.618 41.696 48.2734 39.3945 51.5694C36.7782 52.9811 34.1641 54.3968 31.5523 55.8166C30.2955 56.5139 28.9953 57.2113 27.7806 57.8661C27.6951 57.7818 27.6101 57.6758 27.5247 57.5915C21.0036 50.6822 8.94225 45.8012 9.45364 36.5257C9.64558 33.1449 10.8174 24.2705 32.618 13.4947C50.5611 4.72583 64.8394 7.15549 67.3114 12.5436C70.8486 20.2349 59.661 34.5183 41.1207 36.5887C34.0457 37.3708 30.3375 34.6661 29.4002 33.652C28.4199 32.5953 28.2705 32.5318 27.9081 32.7435C27.3117 33.0606 27.6951 34.0113 27.9081 34.5605C28.4624 35.9969 30.7425 38.5326 34.5996 39.7796C38.0093 40.878 46.299 41.491 56.3363 37.6454C67.5668 33.3348 76.3469 21.3546 73.7684 11.3183C71.1895 1.13391 54.1413 -2.22556 38.0093 3.45799C28.4199 6.83921 18.0203 12.1634 10.5404 19.094C1.65388 27.334 0.247205 34.497 0.822578 37.4976C2.89008 48.1465 17.7008 55.0771 23.625 60.2114C23.3266 60.3804 23.0492 60.5286 22.8152 60.6555C19.8529 62.1132 8.55836 67.9658 5.74547 74.1568C2.54916 81.1716 6.25732 86.2009 8.7078 86.8765C16.3156 88.9686 24.1364 85.2076 28.3345 78.9953C32.5326 72.7834 32.0212 64.7119 30.0821 61.0144C30.0606 60.9722 30.0396 60.9296 29.9966 60.8875C30.7639 60.4439 31.5523 59.979 32.3196 59.5354C33.7299 58.7088 35.158 57.9126 36.6031 57.1474C35.8783 59.1126 35.3454 61.458 35.09 64.8387C34.7701 68.8113 36.4107 73.9665 38.5632 75.9947C39.5225 76.8828 40.6518 76.9037 41.3766 76.9037C43.891 76.9037 45.0208 74.8329 46.278 72.3819C47.8122 69.3818 49.1974 65.8954 49.1974 65.8954C49.1974 65.8954 47.4712 75.3191 52.1597 75.3191C53.8643 75.3191 55.5905 73.1214 56.3578 72.0017V72.0226C56.3578 72.0226 56.4003 71.9592 56.4857 71.8114C56.6562 71.5368 56.7627 71.3674 56.7627 71.3674V71.3257C57.4445 70.1421 58.9792 67.4587 61.2592 63.0004C64.2 57.2534 67.0344 50.0696 67.0344 50.0696C67.0344 50.0696 67.2903 51.8232 68.1637 54.739C68.6755 56.4505 69.7404 58.331 70.5931 60.148C69.9113 61.0991 69.4849 61.627 69.4849 61.627L69.5064 61.6483C68.952 62.3665 68.3556 63.1481 67.6948 63.9094C65.3718 66.6558 62.6019 69.8045 62.218 70.7126C61.7701 71.7901 61.8771 72.5722 62.7298 73.2062C63.3477 73.6711 64.4555 73.734 65.5852 73.6711C67.6738 73.5229 69.144 73.0158 69.8683 72.6991C70.998 72.2976 72.3193 71.6846 73.555 70.776C75.8355 69.1067 77.2202 66.7192 77.0927 63.5714C77.0287 61.8386 76.4534 60.1059 75.75 58.4787C75.9634 58.1833 76.1549 57.8874 76.3683 57.5915C79.9696 52.3724 82.7614 46.6462 82.7614 46.6462C82.7614 46.6462 83.0174 48.3998 83.8907 51.3161C84.3171 52.7951 85.1909 54.401 85.9578 55.9643C82.5695 58.6903 80.481 61.8594 79.7351 63.9302C78.3929 67.7759 79.4367 69.5082 81.4187 69.9097C82.3136 70.1 83.5923 69.6772 84.5301 69.2757C85.7233 68.8956 87.13 68.2408 88.4727 67.2684C90.7531 65.5995 92.9477 63.275 92.8197 60.1272C92.7558 58.6903 92.3723 57.2743 91.8394 55.9009C94.7163 54.7182 98.4245 54.063 103.155 54.6122C113.299 55.7953 115.302 62.0706 114.918 64.7123C114.535 67.3531 112.404 68.79 111.701 69.2336C110.997 69.6777 110.763 69.8254 110.827 70.1421C110.912 70.607 111.253 70.5862 111.85 70.5014C112.681 70.3537 117.178 68.3672 117.369 63.5075C117.689 57.2956 111.722 50.5132 101.173 50.5766ZM22.9217 76.7346C19.5544 80.3687 14.8664 81.7421 12.8419 80.5803C10.6684 79.3333 11.5207 73.9665 15.6548 70.1213C18.1692 67.7759 21.4085 65.5991 23.561 64.2683C24.0509 63.9724 24.7758 63.5501 25.6496 63.0217C25.7985 62.937 25.884 62.8948 25.884 62.8948L26.3954 62.5776C27.9081 68.0713 26.4594 72.9103 22.9217 76.7346ZM47.4287 60.2114C46.2565 63.043 43.806 70.2903 42.3144 69.8888C41.0357 69.5508 40.2469 64.0571 42.0584 58.6269C42.9747 55.9009 44.9138 52.647 46.0436 51.3796C47.8762 49.3509 49.9007 48.6744 50.3906 49.4991C51.009 50.5766 48.1531 58.4365 47.4287 60.2114ZM67.6523 69.8041C67.1619 70.0578 66.6935 70.2269 66.4801 70.1C66.3311 70.0153 66.6935 69.6772 66.6935 69.6772C66.6935 69.6772 69.2294 66.973 70.2307 65.7473C70.8066 65.0291 71.488 64.184 72.2128 63.2329V63.5075C72.2128 66.7405 69.0585 68.9169 67.6518 69.8041H67.6523ZM83.2514 66.2756C82.8889 66.0219 82.9529 65.1768 84.1677 62.5355C84.6365 61.5001 85.7443 59.7678 87.6414 58.0985C87.8543 58.7746 88.0038 59.4298 87.9823 60.0424C87.9608 64.1205 85.0204 65.6417 83.2514 66.2756Z" fill="#CD6799"/>
</g>
<defs>
<clipPath id="clip0_294_1576">
<rect width="117" height="87" fill="white" transform="translate(0.5 0.5)"/>
</clipPath>
</defs>
</svg>
